<?xml version="1.0" ?><svg viewBox="0 0 80 80" xmlns="http://www.w3.org/2000/svg"><title/><g data-name="레이어 2" id="레이어_2"><g data-name="레이어 1" id="레이어_1-2"><path d="M41,21.8a18,18,0,0,0-18,18,17.81,17.81,0,0,0,2,8.18l.8,1.56-1.5,7.28,7.12-1.69,1.62.81a18,18,0,0,0,20.75-3.4A18,18,0,0,0,41,21.8ZM53.1,47.29c-.87,1.38-2.25,3.05-4,3.47-3,.74-7.73,0-13.58-5.44-5.06-4.72-6.4-8.66-6.08-11.78.18-1.77,1.65-3.37,2.9-4.42a1.66,1.66,0,0,1,2.59.59L36.82,34a1.66,1.66,0,0,1-.2,1.69l-1,1.23a1.62,1.62,0,0,0-.13,1.8c1.13,2,5.57,5.91,7.67,6.77A1.62,1.62,0,0,0,45,45.06L46.06,44a1.66,1.66,0,0,1,1.64-.43l4.46,1.28A1.66,1.66,0,0,1,53.1,47.29Z"/><path d="M40,0A40,40,0,1,0,80,40,40,40,0,0,0,40,0ZM64,40.55A23,23,0,0,1,30.76,60.41L19.14,63.16a.9.9,0,0,1-1.08-1.05L20.5,50.26A23,23,0,1,1,64,40.55Z"/></g></g></svg>